<svg width="333" height="334" viewBox="0 0 333 334" fill="none" xmlns="http://www.w3.org/2000/svg">
<path d="M238.129 190.735L237.929 196.941C237.776 201.647 234.551 205.905 228.005 209.048C219.048 213.351 205.629 214.707 191.401 213.397C178.29 212.19 164.492 208.723 152.845 203.213C137.776 196.089 129.838 187.222 130.087 179.542L130.289 173.336C130.04 181.016 137.976 189.882 153.047 197.006C164.7 202.516 178.5 205.984 191.603 207.191C205.834 208.5 219.259 207.144 228.207 202.841C234.743 199.7 237.966 195.442 238.129 190.735Z" fill="url(#paint0_linear_104_118)"/>
<path d="M176.797 156.881C189.906 158.079 203.707 161.556 215.353 167.066C239.655 178.554 245.406 194.572 228.192 202.84C219.235 207.143 205.818 208.498 191.588 207.189C178.479 205.982 164.679 202.514 153.032 197.004C128.731 185.516 122.978 169.498 140.18 161.231C149.151 156.929 162.569 155.572 176.797 156.881Z" fill="url(#paint1_radial_104_118)"/>
<mask id="mask0_104_118" style="mask-type:luminance" maskUnits="userSpaceOnUse" x="130" y="156" width="109" height="58">
<path d="M215.365 167.066C203.71 161.556 189.909 158.088 176.809 156.881C162.577 155.572 149.152 156.927 140.205 161.232C133.601 164.404 130.382 168.719 130.292 173.481C130.292 173.433 130.292 173.383 130.292 173.336L130.091 179.542C129.842 187.222 137.779 196.089 152.848 203.213C164.503 208.723 178.302 212.19 191.405 213.397C205.635 214.707 219.061 213.351 228.008 209.048C234.548 205.905 237.769 201.647 237.932 196.941L238.132 190.735C238.132 190.757 238.132 190.777 238.132 190.8C238.412 183.106 230.483 174.217 215.365 167.066Z" fill="white"/>
</mask>
<g mask="url(#mask0_104_118)">
<path d="M254.081 186.695C258.374 164.56 230.507 139.886 191.837 131.583C153.168 123.28 118.34 134.492 114.047 156.626C109.753 178.76 137.621 203.434 176.29 211.738C214.959 220.041 249.787 208.829 254.081 186.695Z" fill="url(#paint2_radial_104_118)"/>
</g>
<path d="M217.253 252.187L169.839 276.265C167.796 277.304 164.822 277.693 161.981 277.431C160.361 277.301 158.769 276.908 157.263 276.265L33.0495 220.362C31.0257 219.45 30.0122 218.228 30.0496 217.038L29.7242 226.966C29.6852 228.164 30.7003 229.377 32.7241 230.29L156.928 286.195C158.434 286.837 160.026 287.229 161.646 287.358C164.488 287.62 167.461 287.232 169.504 286.193L216.92 262.116C218.384 261.368 219.131 260.405 219.163 259.436L219.488 249.508C219.466 250.484 218.725 251.441 217.253 252.187Z" fill="url(#paint3_linear_104_118)"/>
<path d="M87.5664 189.109C89.1869 189.237 90.7786 189.63 92.2842 190.274L216.492 246.182C220.178 247.843 220.513 250.53 217.248 252.187L169.834 276.265C167.791 277.304 164.817 277.693 161.976 277.431C160.356 277.301 158.764 276.908 157.259 276.265L33.0494 220.362C29.3646 218.702 29.0278 216.014 32.2929 214.357L79.712 190.279C81.7553 189.24 84.7275 188.854 87.5664 189.109Z" fill="url(#paint4_linear_104_118)"/>
<path d="M87.5664 189.109C89.1869 189.237 90.7786 189.63 92.2842 190.274L216.492 246.182C220.178 247.843 220.513 250.53 217.248 252.187L169.834 276.265C167.791 277.304 164.817 277.693 161.976 277.431C160.356 277.301 158.764 276.908 157.259 276.265L33.0494 220.362C29.3646 218.702 29.0278 216.014 32.2929 214.357L79.712 190.279C81.7553 189.24 84.7275 188.854 87.5664 189.109Z" fill="url(#paint5_linear_104_118)"/>
<path d="M204.079 149.538L176.074 140.497C174.961 140.139 174.054 141.11 174.047 142.666L173.932 169.808C173.924 171.365 174.822 172.918 175.934 173.277L203.937 182.318C204.222 182.416 204.529 182.416 204.814 182.318L204.79 182.33L212.496 179.795C213.348 179.515 213.667 178.459 213.672 177.615L213.788 150.473C213.788 150.473 211.582 151.863 204.079 149.538Z" fill="url(#paint6_linear_104_118)"/>
<path d="M252.318 173.38L268.295 169.008C271.204 168.213 272.624 165.012 273.151 162.162C273.288 161.371 273.356 160.569 273.353 159.765L274.082 55.0403C274.085 54.3137 274.045 53.5876 273.961 52.8664C273.579 49.5201 272.297 46.1396 270.133 43.6234C269.094 42.4253 267.706 41.311 266.196 40.8351L138.392 0.268523C137.424 -0.0511888 136.391 -0.0861116 135.405 0.167535L119.428 4.53914L252.318 173.38Z" fill="url(#paint7_linear_104_118)"/>
<path d="M252.318 173.38L268.295 169.008C271.204 168.213 272.624 165.012 273.151 162.162C273.288 161.371 273.356 160.569 273.353 159.765L274.082 55.0403C274.085 54.3137 274.045 53.5876 273.961 52.8664C273.579 49.5201 272.297 46.1396 270.133 43.6234C269.094 42.4253 267.706 41.311 266.196 40.8351L138.392 0.268523C137.424 -0.0511888 136.391 -0.0861116 135.405 0.167535L119.428 4.53914L252.318 173.38Z" fill="url(#paint8_linear_104_118)"/>
<path d="M250.218 45.2067C254.61 46.6034 258.147 52.9657 258.103 59.4136L257.376 164.134C257.332 170.583 253.728 174.677 249.328 173.281L121.525 132.714C117.132 131.317 113.594 124.959 113.64 118.507L114.365 13.7856C114.411 7.34115 118.013 3.24342 122.413 4.64014L250.218 45.2067Z" fill="url(#paint9_linear_104_118)"/>
<path d="M250.218 45.2067C254.61 46.6034 258.147 52.9657 258.103 59.4136L257.376 164.134C257.332 170.583 253.728 174.677 249.328 173.281L121.525 132.714C117.132 131.317 113.594 124.959 113.64 118.507L114.365 13.7856C114.411 7.34115 118.013 3.24342 122.413 4.64014L250.218 45.2067Z" fill="url(#paint10_linear_104_118)"/>
<path d="M242.684 54.0252C246.425 55.2131 249.442 60.6323 249.403 66.1267L248.807 151.931C248.77 157.426 245.698 160.912 241.95 159.724L129.065 123.894C125.324 122.696 122.309 117.287 122.347 111.791L122.948 25.9864C122.988 20.4919 126.059 17.0035 129.806 18.1931L242.684 54.0252Z" fill="url(#paint11_linear_104_118)"/>
<path d="M242.684 54.0252C246.425 55.2131 249.442 60.6323 249.403 66.1267L248.807 151.931C248.77 157.426 245.698 160.912 241.95 159.724L129.065 123.894C125.324 122.696 122.309 117.287 122.347 111.791L122.948 25.9864C122.988 20.4919 126.059 17.0035 129.806 18.1931L242.684 54.0252Z" fill="url(#paint12_linear_104_118)"/>
<path d="M120.728 210.525L113.56 214.47C112.771 214.902 111.416 214.943 110.459 214.577L110.322 214.52L98.1405 209.109C97.6069 208.872 97.3271 208.543 97.3434 208.221L97.2718 211.092C97.2718 211.415 97.5353 211.742 98.0689 211.98L110.259 217.391C110.302 217.411 110.348 217.43 110.395 217.447C111.352 217.813 112.707 217.772 113.496 217.341L120.664 213.404C121.029 213.204 121.212 212.952 121.219 212.697L121.29 209.827C121.276 210.073 121.094 210.333 120.728 210.525ZM105.793 218.741L98.6237 222.678C97.8379 223.111 96.4811 223.152 95.5229 222.784C95.4757 222.767 95.4302 222.748 95.3846 222.728L83.2078 217.319C82.6709 217.081 82.3943 216.752 82.409 216.43L82.3374 219.302C82.3374 219.624 82.5993 219.951 83.1346 220.189L95.3131 225.6L95.4497 225.656C96.4096 226.022 97.7647 225.981 98.5505 225.548L105.722 221.611C106.086 221.411 106.268 221.16 106.275 220.905L106.354 218.036C106.34 218.286 106.158 218.539 105.793 218.739V218.741Z" fill="url(#paint13_linear_104_118)"/>
<path d="M140.892 219.482L133.721 223.419C132.937 223.85 131.585 223.891 130.63 223.525C130.582 223.506 130.534 223.487 130.489 223.467L118.307 218.06C117.772 217.82 117.494 217.491 117.508 217.17L117.437 220.042C117.429 220.364 117.7 220.691 118.235 220.93L130.417 226.337C130.463 226.358 130.51 226.378 130.559 226.397C131.515 226.764 132.867 226.721 133.65 226.289L140.821 222.353C141.185 222.152 141.367 221.901 141.374 221.644L141.446 218.774C141.439 219.029 141.257 219.28 140.892 219.482ZM125.956 227.698L118.789 231.635C118.001 232.065 116.649 232.107 115.698 231.741L115.556 231.683L103.373 226.274C102.839 226.036 102.567 225.707 102.575 225.386L102.504 228.256C102.504 228.58 102.766 228.907 103.301 229.145L115.484 234.553C115.53 234.574 115.577 234.594 115.626 234.613C116.581 234.978 117.933 234.937 118.717 234.505L125.885 230.569C126.251 230.368 126.433 230.117 126.44 229.862L126.511 226.99C126.505 227.243 126.322 227.494 125.956 227.695V227.698Z" fill="url(#paint14_linear_104_118)"/>
<path d="M161.055 228.438L153.887 232.374C153.101 232.807 151.749 232.849 150.796 232.482C150.749 232.463 150.7 232.445 150.654 232.424L138.476 227.015C137.939 226.777 137.662 226.45 137.677 226.129L137.605 228.999C137.605 229.321 137.867 229.648 138.404 229.886L150.583 235.295C150.628 235.315 150.675 235.336 150.724 235.354C151.682 235.721 153.034 235.678 153.815 235.245L160.983 231.308C161.349 231.106 161.533 230.854 161.539 230.598L161.611 227.727C161.605 227.982 161.421 228.236 161.055 228.438ZM146.122 236.654L138.954 240.59C138.167 241.023 136.815 241.065 135.863 240.698C135.814 240.679 135.767 240.661 135.722 240.64L123.543 235.231C123.006 234.993 122.73 234.665 122.741 234.343L122.669 237.215C122.669 237.537 122.935 237.864 123.471 238.102L135.648 243.511L135.792 243.57C136.748 243.937 138.1 243.894 138.882 243.461L146.05 239.524C146.416 239.322 146.599 239.07 146.605 238.814L146.677 235.943C146.67 236.197 146.488 236.45 146.122 236.652V236.654Z" fill="url(#paint15_linear_104_118)"/>
<path d="M101.118 200.861L101.047 203.731C101.047 203.988 100.858 204.245 100.492 204.442L93.324 208.379C92.535 208.813 91.1815 208.853 90.2233 208.486L90.085 208.43L77.9081 203.019C77.3713 202.781 77.0947 202.454 77.1077 202.134L77.1793 199.262C77.1793 199.584 77.4428 199.911 77.9797 200.149L90.1566 205.558C90.2021 205.578 90.2477 205.597 90.2949 205.614C91.2547 205.982 92.6066 205.943 93.3956 205.508L100.563 201.571C100.93 201.369 101.112 201.116 101.118 200.861ZM85.6291 209.786L78.4612 213.722C77.6738 214.157 76.3203 214.197 75.3702 213.829C75.3231 213.811 75.2759 213.793 75.232 213.772L63.0535 208.363C62.5166 208.125 62.24 207.798 62.253 207.477L62.1815 210.347C62.1815 210.669 62.445 210.996 62.9819 211.235L75.1604 216.644L75.297 216.701C76.2569 217.067 77.6104 217.028 78.3978 216.593L85.5656 212.656C85.9317 212.454 86.1155 212.202 86.122 211.947L86.1936 209.075C86.1822 209.332 85.9951 209.584 85.6291 209.786ZM70.6963 218.002L63.5285 221.938C62.7378 222.371 61.3843 222.411 60.4277 222.045C60.3806 222.027 60.335 222.009 60.2894 221.988L48.1142 216.581C47.579 216.345 47.3008 216.018 47.3154 215.696L47.2438 218.566C47.2357 218.888 47.5074 219.215 48.0426 219.453L60.2227 224.864L60.361 224.92C61.3176 225.286 62.6695 225.247 63.4618 224.812L70.6296 220.875C70.9957 220.675 71.1779 220.422 71.1828 220.167L71.256 217.295C71.2446 217.546 71.0624 217.798 70.6963 218V218.002Z" fill="url(#paint16_linear_104_118)"/>
<path d="M131.2 244.858L124.004 248.813C123.223 249.245 121.889 249.286 120.931 248.921L120.795 248.865L68.2607 225.531C67.7271 225.295 67.457 224.97 67.4651 224.65L67.3936 227.52C67.3936 227.84 67.6555 228.165 68.1891 228.402L120.723 251.737L120.86 251.793C121.81 252.156 123.152 252.115 123.933 251.686L131.128 247.73C131.491 247.53 131.672 247.28 131.678 247.026L131.75 244.156C131.743 244.409 131.571 244.659 131.2 244.858Z" fill="url(#paint17_linear_104_118)"/>
<path d="M181.217 237.391L174.059 241.328C173.267 241.761 171.915 241.801 170.958 241.436L170.82 241.378L158.64 235.969C158.105 235.731 157.827 235.404 157.841 235.081L157.77 237.953C157.77 238.275 158.032 238.602 158.567 238.839L170.749 244.25L170.887 244.307C171.842 244.673 173.195 244.633 173.988 244.2L181.146 240.264C181.512 240.062 181.696 239.81 181.702 239.555L181.774 236.683C181.767 236.939 181.585 237.191 181.217 237.391ZM166.283 245.607L159.115 249.544C158.328 249.977 156.974 250.018 156.014 249.65L155.878 249.594L143.699 244.185C143.162 243.947 142.886 243.62 142.9 243.298L142.827 246.169C142.827 246.491 143.091 246.818 143.628 247.055L155.806 252.464C155.85 252.485 155.897 252.504 155.943 252.521C156.903 252.889 158.256 252.849 159.043 252.415L166.211 248.478C166.577 248.276 166.761 248.024 166.768 247.768L166.839 244.897C166.833 245.152 166.649 245.405 166.283 245.607Z" fill="url(#paint18_linear_104_118)"/>
<path d="M201.382 246.349L194.214 250.285C193.427 250.72 192.07 250.76 191.113 250.392C191.067 250.374 191.021 250.356 190.977 250.335L178.798 244.926C178.261 244.688 177.985 244.361 177.998 244.04L177.924 246.91C177.924 247.232 178.19 247.56 178.726 247.798L190.905 253.207L191.042 253.264C191.998 253.63 193.355 253.591 194.142 253.158L201.31 249.221C201.676 249.019 201.859 248.765 201.865 248.51L201.937 245.64C201.93 245.895 201.748 246.147 201.382 246.349ZM185.68 254.986L165.115 266.295C163.908 266.959 162.071 267.123 160.927 266.685C160.883 266.668 129.074 252.541 129.074 252.541C128.535 252.302 128.275 251.958 128.285 251.59L128.213 254.46C128.203 254.83 128.464 255.172 129.001 255.412C129.001 255.412 160.812 269.538 160.856 269.555C161.994 269.994 163.836 269.829 165.043 269.167L185.608 257.856C186.259 257.495 186.602 257.058 186.612 256.658L186.683 253.786C186.674 254.188 186.335 254.624 185.68 254.986Z" fill="url(#paint19_linear_104_118)"/>
<path d="M87.9976 194.507L88.1408 194.565L100.319 199.974C101.282 200.402 101.39 201.116 100.563 201.571L93.3954 205.508C92.6064 205.943 91.2545 205.982 90.2947 205.614C90.2475 205.597 90.202 205.578 90.1564 205.558L77.9795 200.149C77.0148 199.723 76.9074 199.007 77.7339 198.552L84.9033 194.615C85.694 194.182 87.041 194.141 87.9976 194.507ZM105.065 203.579L97.8969 207.516C97.0721 207.971 97.1827 208.685 98.1409 209.113L110.323 214.523L110.459 214.58C111.416 214.946 112.771 214.905 113.56 214.474L120.728 210.528C121.554 210.075 121.444 209.361 120.481 208.933L108.307 203.521C108.261 203.5 108.214 203.48 108.166 203.463C107.204 203.096 105.851 203.144 105.065 203.57V203.579ZM125.226 212.524L118.058 216.461C117.232 216.913 117.343 217.628 118.302 218.058L130.484 223.465C130.53 223.486 130.577 223.505 130.626 223.523C131.582 223.89 132.934 223.849 133.717 223.417L140.888 219.48C141.713 219.025 141.602 218.31 140.644 217.883L128.462 212.473L128.325 212.416C127.374 212.045 126.018 212.093 125.226 212.524ZM145.399 221.481L138.231 225.418C137.405 225.874 137.512 226.587 138.475 227.015L150.654 232.424C150.699 232.445 150.748 232.463 150.795 232.482C151.753 232.849 153.105 232.808 153.886 232.374L161.054 228.438C161.88 227.981 161.773 227.267 160.81 226.841L148.631 221.432C148.588 221.411 148.543 221.392 148.495 221.375C147.535 221.007 146.183 221.047 145.399 221.481ZM165.562 230.437L158.393 234.374C157.566 234.829 157.677 235.545 158.638 235.971L170.818 241.38L170.957 241.438C171.913 241.802 173.265 241.763 174.057 241.33L181.215 237.393C182.045 236.94 181.935 236.224 180.971 235.798L168.793 230.389C168.747 230.368 168.702 230.35 168.655 230.332C167.698 229.963 166.345 230.002 165.557 230.437H165.562ZM185.723 239.392L178.565 243.329C177.736 243.783 177.846 244.498 178.809 244.924L190.988 250.333C191.031 250.354 191.077 250.373 191.125 250.39C192.081 250.758 193.438 250.718 194.225 250.284L201.393 246.347C202.22 245.892 202.109 245.176 201.149 244.75L188.967 239.341C188.922 239.32 188.875 239.3 188.826 239.281C187.859 238.918 186.508 238.959 185.719 239.392H185.723ZM69.9738 202.829L62.806 206.766C61.9763 207.221 62.0869 207.937 63.05 208.363L75.2285 213.772C75.2725 213.793 75.3196 213.811 75.3668 213.829C76.325 214.197 77.6786 214.157 78.4578 213.722L85.6257 209.786C86.4521 209.33 86.3447 208.616 85.3816 208.189L73.2031 202.78C73.1576 202.759 73.1104 202.74 73.0616 202.722C72.1083 202.355 70.7564 202.396 69.969 202.829H69.9738ZM90.1353 211.785L82.9674 215.722C82.1442 216.177 82.2516 216.891 83.2131 217.319L95.3899 222.728C95.4355 222.748 95.4811 222.767 95.5282 222.784C96.4864 223.152 97.8432 223.111 98.629 222.678L105.798 218.741C106.623 218.287 106.516 217.574 105.553 217.146L93.3743 211.737L93.2311 211.679C92.2697 211.311 90.9178 211.36 90.1304 211.785H90.1353ZM110.308 220.739L103.139 224.675C102.314 225.131 102.424 225.844 103.383 226.272L115.566 231.681L115.708 231.739C116.662 232.106 118.014 232.063 118.799 231.633L125.966 227.696C126.793 227.243 126.682 226.529 125.724 226.101L113.544 220.691L113.407 220.634C112.441 220.261 111.084 220.307 110.295 220.739H110.308ZM130.481 229.696L123.311 233.633C122.483 234.086 122.594 234.802 123.557 235.23L135.736 240.638C135.781 240.659 135.828 240.678 135.877 240.697C136.834 241.063 138.186 241.022 138.968 240.589L146.136 236.652C146.962 236.195 146.852 235.481 145.892 235.055L133.713 229.646C133.668 229.626 133.622 229.607 133.575 229.59C132.602 229.222 131.245 229.261 130.461 229.696H130.481ZM55.0525 211.039L47.8944 214.975C47.0647 215.431 47.1753 216.146 48.1368 216.571L60.3169 221.981C60.3625 222.002 60.408 222.021 60.4552 222.038C61.4118 222.404 62.7653 222.365 63.556 221.932L70.7238 217.995C71.5503 217.539 71.4396 216.824 70.4798 216.398L58.298 210.987C58.2525 210.967 58.2037 210.948 58.1565 210.929C57.1739 210.57 55.822 210.611 55.033 211.044L55.0525 211.039ZM75.2253 219.985L68.0281 223.943C67.2147 224.395 67.3188 225.102 68.2738 225.526L120.808 248.86L120.944 248.916C121.894 249.281 123.237 249.24 124.017 248.808L131.213 244.853C132.026 244.402 131.924 243.695 130.971 243.271L78.422 219.943L78.2854 219.886C77.3353 219.522 75.9899 219.563 75.2123 219.991L75.2253 219.985ZM150.636 238.643L143.468 242.579C142.641 243.035 142.749 243.749 143.712 244.176L155.89 249.585L156.027 249.642C156.987 250.01 158.34 249.969 159.128 249.536L166.296 245.599C167.122 245.142 167.015 244.428 166.052 244.002L153.873 238.593C153.83 238.572 153.784 238.554 153.737 238.537C152.764 238.177 151.418 238.216 150.623 238.651L150.636 238.643ZM170.033 248.021L157.361 254.989L139.248 246.944L139.119 246.891C137.981 246.453 136.137 246.617 134.934 247.278L129.293 250.386C128.045 251.071 127.949 252.04 129.08 252.543L149.245 261.5L150.986 262.272L160.805 266.634L160.934 266.687C162.072 267.125 163.914 266.96 165.121 266.296L169.79 263.729L170.752 263.202L185.686 254.986C186.937 254.301 187.031 253.332 185.901 252.829L174.34 247.694L174.21 247.641C173.055 247.203 171.22 247.367 170.02 248.029L170.033 248.021Z" fill="url(#paint20_linear_104_118)"/>
<path d="M87.9976 194.507L88.1408 194.565L100.319 199.974C101.282 200.402 101.39 201.116 100.563 201.571L93.3954 205.508C92.6064 205.943 91.2545 205.982 90.2947 205.614C90.2475 205.597 90.202 205.578 90.1564 205.558L77.9795 200.149C77.0148 199.723 76.9074 199.007 77.7339 198.552L84.9033 194.615C85.694 194.182 87.041 194.141 87.9976 194.507ZM105.065 203.579L97.8969 207.516C97.0721 207.971 97.1827 208.685 98.1409 209.113L110.323 214.523L110.459 214.58C111.416 214.946 112.771 214.905 113.56 214.474L120.728 210.528C121.554 210.075 121.444 209.361 120.481 208.933L108.307 203.521C108.261 203.5 108.214 203.48 108.166 203.463C107.204 203.096 105.851 203.144 105.065 203.57V203.579ZM125.226 212.524L118.058 216.461C117.232 216.913 117.343 217.628 118.302 218.058L130.484 223.465C130.53 223.486 130.577 223.505 130.626 223.523C131.582 223.89 132.934 223.849 133.717 223.417L140.888 219.48C141.713 219.025 141.602 218.31 140.644 217.883L128.462 212.473L128.325 212.416C127.374 212.045 126.018 212.093 125.226 212.524ZM145.399 221.481L138.231 225.418C137.405 225.874 137.512 226.587 138.475 227.015L150.654 232.424C150.699 232.445 150.748 232.463 150.795 232.482C151.753 232.849 153.105 232.808 153.886 232.374L161.054 228.438C161.88 227.981 161.773 227.267 160.81 226.841L148.631 221.432C148.588 221.411 148.543 221.392 148.495 221.375C147.535 221.007 146.183 221.047 145.399 221.481ZM165.562 230.437L158.393 234.374C157.566 234.829 157.677 235.545 158.638 235.971L170.818 241.38L170.957 241.438C171.913 241.802 173.265 241.763 174.057 241.33L181.215 237.393C182.045 236.94 181.935 236.224 180.971 235.798L168.793 230.389C168.747 230.368 168.702 230.35 168.655 230.332C167.698 229.963 166.345 230.002 165.557 230.437H165.562ZM185.723 239.392L178.565 243.329C177.736 243.783 177.846 244.498 178.809 244.924L190.988 250.333C191.031 250.354 191.077 250.373 191.125 250.39C192.081 250.758 193.438 250.718 194.225 250.284L201.393 246.347C202.22 245.892 202.109 245.176 201.149 244.75L188.967 239.341C188.922 239.32 188.875 239.3 188.826 239.281C187.859 238.918 186.508 238.959 185.719 239.392H185.723ZM69.9738 202.829L62.806 206.766C61.9763 207.221 62.0869 207.937 63.05 208.363L75.2285 213.772C75.2725 213.793 75.3196 213.811 75.3668 213.829C76.325 214.197 77.6786 214.157 78.4578 213.722L85.6257 209.786C86.4521 209.33 86.3447 208.616 85.3816 208.189L73.2031 202.78C73.1576 202.759 73.1104 202.74 73.0616 202.722C72.1083 202.355 70.7564 202.396 69.969 202.829H69.9738ZM90.1353 211.785L82.9674 215.722C82.1442 216.177 82.2516 216.891 83.2131 217.319L95.3899 222.728C95.4355 222.748 95.4811 222.767 95.5282 222.784C96.4864 223.152 97.8432 223.111 98.629 222.678L105.798 218.741C106.623 218.287 106.516 217.574 105.553 217.146L93.3743 211.737L93.2311 211.679C92.2697 211.311 90.9178 211.36 90.1304 211.785H90.1353ZM110.308 220.739L103.139 224.675C102.314 225.131 102.424 225.844 103.383 226.272L115.566 231.681L115.708 231.739C116.662 232.106 118.014 232.063 118.799 231.633L125.966 227.696C126.793 227.243 126.682 226.529 125.724 226.101L113.544 220.691L113.407 220.634C112.441 220.261 111.084 220.307 110.295 220.739H110.308ZM130.481 229.696L123.311 233.633C122.483 234.086 122.594 234.802 123.557 235.23L135.736 240.638C135.781 240.659 135.828 240.678 135.877 240.697C136.834 241.063 138.186 241.022 138.968 240.589L146.136 236.652C146.962 236.195 146.852 235.481 145.892 235.055L133.713 229.646C133.668 229.626 133.622 229.607 133.575 229.59C132.602 229.222 131.245 229.261 130.461 229.696H130.481ZM55.0525 211.039L47.8944 214.975C47.0647 215.431 47.1753 216.146 48.1368 216.571L60.3169 221.981C60.3625 222.002 60.408 222.021 60.4552 222.038C61.4118 222.404 62.7653 222.365 63.556 221.932L70.7238 217.995C71.5503 217.539 71.4396 216.824 70.4798 216.398L58.298 210.987C58.2525 210.967 58.2037 210.948 58.1565 210.929C57.1739 210.57 55.822 210.611 55.033 211.044L55.0525 211.039ZM75.2253 219.985L68.0281 223.943C67.2147 224.395 67.3188 225.102 68.2738 225.526L120.808 248.86L120.944 248.916C121.894 249.281 123.237 249.24 124.017 248.808L131.213 244.853C132.026 244.402 131.924 243.695 130.971 243.271L78.422 219.943L78.2854 219.886C77.3353 219.522 75.9899 219.563 75.2123 219.991L75.2253 219.985ZM150.636 238.643L143.468 242.579C142.641 243.035 142.749 243.749 143.712 244.176L155.89 249.585L156.027 249.642C156.987 250.01 158.34 249.969 159.128 249.536L166.296 245.599C167.122 245.142 167.015 244.428 166.052 244.002L153.873 238.593C153.83 238.572 153.784 238.554 153.737 238.537C152.764 238.177 151.418 238.216 150.623 238.651L150.636 238.643ZM170.033 248.021L157.361 254.989L139.248 246.944L139.119 246.891C137.981 246.453 136.137 246.617 134.934 247.278L129.293 250.386C128.045 251.071 127.949 252.04 129.08 252.543L149.245 261.5L150.986 262.272L160.805 266.634L160.934 266.687C162.072 267.125 163.914 266.96 165.121 266.296L169.79 263.729L170.752 263.202L185.686 254.986C186.937 254.301 187.031 253.332 185.901 252.829L174.34 247.694L174.21 247.641C173.055 247.203 171.22 247.367 170.02 248.029L170.033 248.021Z" fill="url(#paint21_linear_104_118)"/>
<path opacity="0.3" d="M127.927 70.7979C127.633 65.4558 127.229 56.6578 127.062 47.2025C126.816 33.3226 131.9 29.0006 141.57 32.6191C151.24 36.2376 161.726 40.8146 164.7 42.5468C167.674 44.279 166.251 48.1953 162.481 47.2607C158.712 46.3261 147.527 42.3414 144.353 41.3058C141.179 40.2703 133.953 37.8825 133.707 45.5148C133.462 53.1472 133.066 66.226 132.926 70.7928C132.787 75.3595 128.222 76.1383 127.927 70.7979Z" fill="white"/>
<defs>
<linearGradient id="paint0_linear_104_118" x1="112.247" y1="189.304" x2="245.161" y2="199.349" gradientUnits="userSpaceOnUse">
<stop offset="0.01" stop-color="#9A6CF0"/>
<stop offset="0.05" stop-color="#A477F1"/>
<stop offset="0.12" stop-color="#BD95F5"/>
<stop offset="0.21" stop-color="#E8C7FC"/>
<stop offset="0.23" stop-color="#E1BFFB"/>
<stop offset="0.32" stop-color="#BB92F5"/>
<stop offset="0.4" stop-color="#A376F1"/>
<stop offset="0.44" stop-color="#9A6CF0"/>
<stop offset="0.57" stop-color="#885ED6"/>
<stop offset="0.77" stop-color="#6945A9"/>
<stop offset="0.83" stop-color="#714BB4"/>
<stop offset="0.92" stop-color="#855BD1"/>
<stop offset="1" stop-color="#9A6CF0"/>
</linearGradient>
<radialGradient id="paint1_radial_104_118" cx="0" cy="0" r="1" gradientUnits="userSpaceOnUse" gradientTransform="translate(219.879 57.7378) scale(149.619 157.421)">
<stop offset="0.87" stop-color="#6945A9"/>
<stop offset="0.91" stop-color="#744EB9"/>
<stop offset="0.98" stop-color="#9064E2"/>
<stop offset="1" stop-color="#9A6CF0"/>
</radialGradient>
<radialGradient id="paint2_radial_104_118" cx="0" cy="0" r="1" gradientUnits="userSpaceOnUse" gradientTransform="translate(183.851 170.906) rotate(12.1187) scale(71.5036 40.63)">
<stop offset="0.71" stop-color="#A77AD7"/>
<stop offset="0.84" stop-color="#A77AD7"/>
<stop offset="0.85" stop-color="#A77AD7"/>
<stop offset="0.97" stop-color="#A77AD7"/>
</radialGradient>
<linearGradient id="paint3_linear_104_118" x1="29.7275" y1="252.238" x2="219.497" y2="252.238" gradientUnits="userSpaceOnUse">
<stop offset="0.02" stop-color="#E8C7FC"/>
<stop offset="0.08" stop-color="#D3BAF9"/>
<stop offset="0.13" stop-color="#C9B3F8"/>
<stop offset="0.33" stop-color="#C7B1F8"/>
<stop offset="0.43" stop-color="#C2A9F7"/>
<stop offset="0.51" stop-color="#BA9CF5"/>
<stop offset="0.58" stop-color="#AD89F3"/>
<stop offset="0.64" stop-color="#9A6CF0"/>
<stop offset="0.72" stop-color="#875DD5"/>
<stop offset="0.8" stop-color="#7750BD"/>
<stop offset="0.88" stop-color="#6C48AE"/>
<stop offset="0.95" stop-color="#6945A9"/>
</linearGradient>
<linearGradient id="paint4_linear_104_118" x1="91.5635" y1="152.581" x2="157.565" y2="297.442" gradientUnits="userSpaceOnUse">
<stop offset="0.16" stop-color="#CAB4F8"/>
<stop offset="0.27" stop-color="#E8C7FC"/>
<stop offset="0.46" stop-color="#E5C5FC"/>
<stop offset="0.62" stop-color="#DBBFFA"/>
<stop offset="0.77" stop-color="#C9B3F8"/>
<stop offset="0.81" stop-color="#C7B0F8"/>
<stop offset="0.84" stop-color="#C0A5F6"/>
<stop offset="0.87" stop-color="#B493F4"/>
<stop offset="0.9" stop-color="#A37AF2"/>
<stop offset="0.92" stop-color="#9A6CF0"/>
</linearGradient>
<linearGradient id="paint5_linear_104_118" x1="139.65" y1="194.569" x2="97.9904" y2="292.476" gradientUnits="userSpaceOnUse">
<stop offset="0.1" stop-color="#7E69F4"/>
<stop offset="0.17" stop-color="#977FF1"/>
<stop offset="0.21" stop-color="#A389F0"/>
<stop offset="0.42" stop-color="#A58BF0"/>
<stop offset="0.5" stop-color="#AC91F2"/>
<stop offset="0.55" stop-color="#B79BF4"/>
<stop offset="0.59" stop-color="#C8ABF6"/>
<stop offset="0.63" stop-color="#DEBEFA"/>
<stop offset="0.64" stop-color="#E8C7FC"/>
</linearGradient>
<linearGradient id="paint6_linear_104_118" x1="173.932" y1="161.407" x2="213.788" y2="161.407" gradientUnits="userSpaceOnUse">
<stop offset="0.02" stop-color="#CF8AFF"/>
<stop offset="0.04" stop-color="#BE81FA"/>
<stop offset="0.06" stop-color="#AA75F5"/>
<stop offset="0.08" stop-color="#9E6EF1"/>
<stop offset="0.11" stop-color="#9A6CF0"/>
<stop offset="0.78" stop-color="#9A6CF0"/>
<stop offset="0.81" stop-color="#9366E6"/>
<stop offset="0.85" stop-color="#8057CA"/>
<stop offset="0.89" stop-color="#6945A9"/>
</linearGradient>
<linearGradient id="paint7_linear_104_118" x1="184.015" y1="-20.5146" x2="240.605" y2="176.431" gradientUnits="userSpaceOnUse">
<stop stop-color="#E8C7FC"/>
<stop offset="0.07" stop-color="#DBA7FE"/>
<stop offset="0.12" stop-color="#D292FF"/>
<stop offset="0.16" stop-color="#CF8AFF"/>
<stop offset="0.28" stop-color="#CD89FE"/>
<stop offset="0.34" stop-color="#C584FC"/>
<stop offset="0.39" stop-color="#B77CF8"/>
<stop offset="0.43" stop-color="#A472F3"/>
<stop offset="0.45" stop-color="#9A6CF0"/>
<stop offset="0.9" stop-color="#9A6CF0"/>
<stop offset="0.93" stop-color="#986AEC"/>
<stop offset="0.95" stop-color="#9064E1"/>
<stop offset="0.97" stop-color="#835ACF"/>
<stop offset="0.99" stop-color="#714CB5"/>
<stop offset="1" stop-color="#6945A9"/>
</linearGradient>
<linearGradient id="paint8_linear_104_118" x1="279.938" y1="85.7408" x2="125.341" y2="87.2886" gradientUnits="userSpaceOnUse">
<stop stop-color="#E8C7FC"/>
<stop offset="0.07" stop-color="#A579D6"/>
<stop offset="0.16" stop-color="#9167D0"/>
<stop offset="0.26" stop-color="#855CCC"/>
<stop offset="0.36" stop-color="#8158CB"/>
<stop offset="0.63" stop-color="#8359CD"/>
<stop offset="0.79" stop-color="#885ED6"/>
<stop offset="0.92" stop-color="#9265E4"/>
<stop offset="1" stop-color="#9A6CF0"/>
</linearGradient>
<linearGradient id="paint9_linear_104_118" x1="106.994" y1="88.9587" x2="265.941" y2="88.9587" gradientUnits="userSpaceOnUse">
<stop offset="0.03" stop-color="#C9B3F8"/>
<stop offset="0.07" stop-color="#D7BCFA"/>
<stop offset="0.12" stop-color="#E4C4FB"/>
<stop offset="0.16" stop-color="#E8C7FC"/>
<stop offset="0.44" stop-color="#E5C5FC"/>
<stop offset="0.67" stop-color="#DBBFFA"/>
<stop offset="0.87" stop-color="#CAB4F8"/>
<stop offset="0.88" stop-color="#C9B3F8"/>
<stop offset="0.93" stop-color="#B7A0F4"/>
<stop offset="0.98" stop-color="#A389F0"/>
</linearGradient>
<linearGradient id="paint10_linear_104_118" x1="167.664" y1="152.816" x2="213.846" y2="6.50113" gradientUnits="userSpaceOnUse">
<stop stop-color="#432594"/>
<stop offset="0.04" stop-color="#8D73CB"/>
<stop offset="0.08" stop-color="#C9B3F8"/>
</linearGradient>
<linearGradient id="paint11_linear_104_118" x1="122.347" y1="88.9587" x2="249.394" y2="88.9587" gradientUnits="userSpaceOnUse">
<stop stop-color="#F3F8FB"/>
<stop offset="0.09" stop-color="#E0EFF1"/>
<stop offset="0.82" stop-color="#DFEEF0"/>
<stop offset="0.9" stop-color="#DDECEE"/>
<stop offset="0.93" stop-color="#D6E6E8"/>
<stop offset="0.95" stop-color="#CBDCDE"/>
<stop offset="0.97" stop-color="#BACDCF"/>
<stop offset="0.98" stop-color="#A6BBBE"/>
</linearGradient>
<linearGradient id="paint12_linear_104_118" x1="202.631" y1="27.0236" x2="168.789" y2="139.991" gradientUnits="userSpaceOnUse">
<stop offset="0.1" stop-color="#F3F8FB"/>
<stop offset="0.21" stop-color="#F3F8FB"/>
<stop offset="0.36" stop-color="#EFF4F7"/>
<stop offset="0.53" stop-color="#E1EAED"/>
<stop offset="0.7" stop-color="#CBD9DC"/>
<stop offset="0.87" stop-color="#ADC0C3"/>
<stop offset="0.91" stop-color="#A6BBBE"/>
<stop offset="1" stop-color="#A6BBBE"/>
</linearGradient>
<linearGradient id="paint13_linear_104_118" x1="97.1123" y1="205.322" x2="106.032" y2="221.308" gradientUnits="userSpaceOnUse">
<stop stop-color="#C9B3F8"/>
<stop offset="0.14" stop-color="#C3AAF7"/>
<stop offset="0.38" stop-color="#B392F4"/>
<stop offset="0.67" stop-color="#9A6CF0"/>
<stop offset="0.76" stop-color="#986AED"/>
<stop offset="0.83" stop-color="#9165E2"/>
<stop offset="0.9" stop-color="#855BD1"/>
<stop offset="0.97" stop-color="#744EB9"/>
<stop offset="1" stop-color="#6945A9"/>
</linearGradient>
<linearGradient id="paint14_linear_104_118" x1="116.073" y1="212.119" x2="126.648" y2="230.702" gradientUnits="userSpaceOnUse">
<stop stop-color="#C9B3F8"/>
<stop offset="0.14" stop-color="#C3AAF7"/>
<stop offset="0.38" stop-color="#B392F4"/>
<stop offset="0.67" stop-color="#9A6CF0"/>
<stop offset="0.76" stop-color="#986AED"/>
<stop offset="0.83" stop-color="#9165E2"/>
<stop offset="0.9" stop-color="#855BD1"/>
<stop offset="0.97" stop-color="#744EB9"/>
<stop offset="1" stop-color="#6945A9"/>
</linearGradient>
<linearGradient id="paint15_linear_104_118" x1="135.494" y1="218.565" x2="146.498" y2="239.482" gradientUnits="userSpaceOnUse">
<stop stop-color="#C9B3F8"/>
<stop offset="0.14" stop-color="#C3AAF7"/>
<stop offset="0.38" stop-color="#B392F4"/>
<stop offset="0.67" stop-color="#9A6CF0"/>
<stop offset="0.76" stop-color="#986AED"/>
<stop offset="0.83" stop-color="#9165E2"/>
<stop offset="0.9" stop-color="#855BD1"/>
<stop offset="0.97" stop-color="#744EB9"/>
<stop offset="1" stop-color="#6945A9"/>
</linearGradient>
<linearGradient id="paint16_linear_104_118" x1="67.3223" y1="195.924" x2="79.3115" y2="217.826" gradientUnits="userSpaceOnUse">
<stop stop-color="#C9B3F8"/>
<stop offset="0.15" stop-color="#C3AAF7"/>
<stop offset="0.39" stop-color="#B392F4"/>
<stop offset="0.69" stop-color="#9A6CF0"/>
<stop offset="0.75" stop-color="#9769EB"/>
<stop offset="0.82" stop-color="#8D62DD"/>
<stop offset="0.89" stop-color="#7D55C6"/>
<stop offset="0.96" stop-color="#6945A9"/>
</linearGradient>
<linearGradient id="paint17_linear_104_118" x1="79.5265" y1="209.561" x2="120.11" y2="257.822" gradientUnits="userSpaceOnUse">
<stop stop-color="#C9B3F8"/>
<stop offset="0.13" stop-color="#BB9EF6"/>
<stop offset="0.34" stop-color="#A983F3"/>
<stop offset="0.53" stop-color="#9E72F1"/>
<stop offset="0.67" stop-color="#9A6CF0"/>
<stop offset="0.83" stop-color="#996BEE"/>
<stop offset="0.89" stop-color="#9467E7"/>
<stop offset="0.93" stop-color="#8C61DC"/>
<stop offset="0.96" stop-color="#8057CB"/>
<stop offset="0.99" stop-color="#714CB5"/>
<stop offset="1" stop-color="#6945A9"/>
</linearGradient>
<linearGradient id="paint18_linear_104_118" x1="154.043" y1="223.421" x2="166.463" y2="247.983" gradientUnits="userSpaceOnUse">
<stop stop-color="#C9B3F8"/>
<stop offset="0.14" stop-color="#C3AAF7"/>
<stop offset="0.38" stop-color="#B392F4"/>
<stop offset="0.67" stop-color="#9A6CF0"/>
<stop offset="0.76" stop-color="#986AED"/>
<stop offset="0.83" stop-color="#9165E2"/>
<stop offset="0.9" stop-color="#855BD1"/>
<stop offset="0.97" stop-color="#744EB9"/>
<stop offset="1" stop-color="#6945A9"/>
</linearGradient>
<linearGradient id="paint19_linear_104_118" x1="154.788" y1="230.271" x2="174.657" y2="264.956" gradientUnits="userSpaceOnUse">
<stop stop-color="#C9B3F8"/>
<stop offset="0.02" stop-color="#C6AFF8"/>
<stop offset="0.35" stop-color="#A67FF2"/>
<stop offset="0.51" stop-color="#9A6CF0"/>
<stop offset="0.65" stop-color="#986AED"/>
<stop offset="0.76" stop-color="#9165E3"/>
<stop offset="0.85" stop-color="#865CD3"/>
<stop offset="0.94" stop-color="#764FBC"/>
<stop offset="1" stop-color="#6945A9"/>
</linearGradient>
<linearGradient id="paint20_linear_104_118" x1="47.3104" y1="230.594" x2="201.936" y2="230.594" gradientUnits="userSpaceOnUse">
<stop stop-color="#9A6CF0"/>
<stop offset="0.44" stop-color="#855BD2"/>
<stop offset="0.96" stop-color="#6945A9"/>
</linearGradient>
<linearGradient id="paint21_linear_104_118" x1="117.559" y1="248.394" x2="133.211" y2="212.914" gradientUnits="userSpaceOnUse">
<stop stop-color="#CF8AFF"/>
<stop offset="0.03" stop-color="#C785FD"/>
<stop offset="0.12" stop-color="#B37AF7"/>
<stop offset="0.22" stop-color="#A572F3"/>
<stop offset="0.34" stop-color="#9D6DF1"/>
<stop offset="0.54" stop-color="#9A6CF0"/>
<stop offset="0.65" stop-color="#986AEC"/>
<stop offset="0.75" stop-color="#9064E2"/>
<stop offset="0.84" stop-color="#845ACF"/>
<stop offset="0.93" stop-color="#724CB6"/>
<stop offset="0.97" stop-color="#6945A9"/>
</linearGradient>
</defs>
</svg>
